<mxfile host="app.diagrams.net" modified="2021-05-26T15:05:16.776Z" agent="5.0 (Windows NT 10.0; Win64; x64) AppleWebKit/537.36 (KHTML, like Gecko) Chrome/90.0.4430.212 Safari/537.36" etag="jXx3tpsnTPU4Lh_CypYK" version="14.6.13" type="github">
  <diagram id="sadh_oiUcqQQphwWl-uZ" name="Page-1">
    <mxGraphModel dx="1038" dy="548" grid="1" gridSize="10" guides="1" tooltips="1" connect="1" arrows="1" fold="1" page="1" pageScale="1" pageWidth="827" pageHeight="1169" math="0" shadow="0">
      <root>
        <mxCell id="0" />
        <mxCell id="1" parent="0" />
        <mxCell id="bQQyXxLcEVgci-WKwtOE-1" value="&lt;font face=&quot;Comic Sans MS&quot; style=&quot;font-size: 14px&quot;&gt;sdshdr8&lt;/font&gt;" style="rounded=0;whiteSpace=wrap;html=1;sketch=1;" vertex="1" parent="1">
          <mxGeometry x="288" y="45" width="80" height="30" as="geometry" />
        </mxCell>
        <mxCell id="bQQyXxLcEVgci-WKwtOE-2" value="&lt;font face=&quot;Comic Sans MS&quot; style=&quot;font-size: 14px&quot;&gt;alloc&lt;br&gt;5&lt;br&gt;&lt;/font&gt;" style="rounded=0;whiteSpace=wrap;html=1;sketch=1;" vertex="1" parent="1">
          <mxGeometry x="288" y="115" width="80" height="40" as="geometry" />
        </mxCell>
        <mxCell id="bQQyXxLcEVgci-WKwtOE-3" value="&lt;font style=&quot;font-size: 14px&quot; face=&quot;Comic Sans MS&quot;&gt;len&lt;br&gt;5&lt;br&gt;&lt;/font&gt;" style="rounded=0;whiteSpace=wrap;html=1;sketch=1;" vertex="1" parent="1">
          <mxGeometry x="288" y="75" width="80" height="40" as="geometry" />
        </mxCell>
        <mxCell id="bQQyXxLcEVgci-WKwtOE-4" value="&lt;font face=&quot;Comic Sans MS&quot; style=&quot;font-size: 14px&quot;&gt;buf&lt;/font&gt;" style="rounded=0;whiteSpace=wrap;html=1;sketch=1;" vertex="1" parent="1">
          <mxGeometry x="288" y="195" width="80" height="30" as="geometry" />
        </mxCell>
        <mxCell id="bQQyXxLcEVgci-WKwtOE-5" value="" style="endArrow=classic;html=1;sketch=1;fillColor=#dae8fc;strokeColor=#6c8ebf;" edge="1" parent="1">
          <mxGeometry width="50" height="50" relative="1" as="geometry">
            <mxPoint x="358" y="209.5" as="sourcePoint" />
            <mxPoint x="408" y="209.5" as="targetPoint" />
          </mxGeometry>
        </mxCell>
        <mxCell id="bQQyXxLcEVgci-WKwtOE-6" value="&lt;font face=&quot;Comic Sans MS&quot; style=&quot;font-size: 14px&quot;&gt;R&lt;/font&gt;" style="rounded=0;whiteSpace=wrap;html=1;sketch=1;" vertex="1" parent="1">
          <mxGeometry x="408" y="195" width="30" height="30" as="geometry" />
        </mxCell>
        <mxCell id="bQQyXxLcEVgci-WKwtOE-7" value="&lt;font face=&quot;Comic Sans MS&quot; style=&quot;font-size: 14px&quot;&gt;e&lt;/font&gt;" style="rounded=0;whiteSpace=wrap;html=1;sketch=1;" vertex="1" parent="1">
          <mxGeometry x="438" y="195" width="30" height="30" as="geometry" />
        </mxCell>
        <mxCell id="bQQyXxLcEVgci-WKwtOE-8" value="&lt;font face=&quot;Comic Sans MS&quot;&gt;&lt;span style=&quot;font-size: 14px&quot;&gt;d&lt;/span&gt;&lt;/font&gt;" style="rounded=0;whiteSpace=wrap;html=1;sketch=1;" vertex="1" parent="1">
          <mxGeometry x="468" y="195" width="30" height="30" as="geometry" />
        </mxCell>
        <mxCell id="bQQyXxLcEVgci-WKwtOE-9" value="&lt;font face=&quot;Comic Sans MS&quot;&gt;&lt;span style=&quot;font-size: 14px&quot;&gt;i&lt;/span&gt;&lt;/font&gt;" style="rounded=0;whiteSpace=wrap;html=1;sketch=1;" vertex="1" parent="1">
          <mxGeometry x="498" y="195" width="30" height="30" as="geometry" />
        </mxCell>
        <mxCell id="bQQyXxLcEVgci-WKwtOE-10" value="&lt;font face=&quot;Comic Sans MS&quot; style=&quot;font-size: 14px&quot;&gt;s&lt;/font&gt;" style="rounded=0;whiteSpace=wrap;html=1;sketch=1;" vertex="1" parent="1">
          <mxGeometry x="528" y="195" width="30" height="30" as="geometry" />
        </mxCell>
        <mxCell id="bQQyXxLcEVgci-WKwtOE-11" value="&lt;span style=&quot;font-family: &amp;#34;comic sans ms&amp;#34; ; font-size: 14px&quot;&gt;\0&lt;/span&gt;" style="rounded=0;whiteSpace=wrap;html=1;sketch=1;" vertex="1" parent="1">
          <mxGeometry x="558" y="195" width="30" height="30" as="geometry" />
        </mxCell>
        <mxCell id="bQQyXxLcEVgci-WKwtOE-16" value="" style="endArrow=classic;html=1;sketch=1;" edge="1" parent="1">
          <mxGeometry width="50" height="50" relative="1" as="geometry">
            <mxPoint x="209" y="110" as="sourcePoint" />
            <mxPoint x="209" y="270" as="targetPoint" />
            <Array as="points">
              <mxPoint x="189" y="240" />
            </Array>
          </mxGeometry>
        </mxCell>
        <mxCell id="bQQyXxLcEVgci-WKwtOE-17" value="&lt;font face=&quot;Comic Sans MS&quot; style=&quot;font-size: 14px&quot;&gt;sdshdr&lt;/font&gt;" style="rounded=0;whiteSpace=wrap;html=1;sketch=1;" vertex="1" parent="1">
          <mxGeometry x="219" y="270" width="80" height="30" as="geometry" />
        </mxCell>
        <mxCell id="bQQyXxLcEVgci-WKwtOE-18" value="&lt;font face=&quot;Comic Sans MS&quot; style=&quot;font-size: 14px&quot;&gt;free&lt;br&gt;4&lt;br&gt;&lt;/font&gt;" style="rounded=0;whiteSpace=wrap;html=1;sketch=1;" vertex="1" parent="1">
          <mxGeometry x="219" y="300" width="80" height="40" as="geometry" />
        </mxCell>
        <mxCell id="bQQyXxLcEVgci-WKwtOE-19" value="&lt;font style=&quot;font-size: 14px&quot; face=&quot;Comic Sans MS&quot;&gt;len&lt;br&gt;3&lt;br&gt;&lt;/font&gt;" style="rounded=0;whiteSpace=wrap;html=1;sketch=1;" vertex="1" parent="1">
          <mxGeometry x="219" y="340" width="80" height="40" as="geometry" />
        </mxCell>
        <mxCell id="bQQyXxLcEVgci-WKwtOE-20" value="&lt;font face=&quot;Comic Sans MS&quot; style=&quot;font-size: 14px&quot;&gt;buf&lt;/font&gt;" style="rounded=0;whiteSpace=wrap;html=1;sketch=1;" vertex="1" parent="1">
          <mxGeometry x="219" y="380" width="80" height="30" as="geometry" />
        </mxCell>
        <mxCell id="bQQyXxLcEVgci-WKwtOE-21" value="" style="endArrow=classic;html=1;sketch=1;fillColor=#dae8fc;strokeColor=#6c8ebf;" edge="1" parent="1">
          <mxGeometry width="50" height="50" relative="1" as="geometry">
            <mxPoint x="289" y="394.5" as="sourcePoint" />
            <mxPoint x="339" y="394.5" as="targetPoint" />
          </mxGeometry>
        </mxCell>
        <mxCell id="bQQyXxLcEVgci-WKwtOE-28" value="&lt;font face=&quot;Comic Sans MS&quot; style=&quot;font-size: 14px&quot;&gt;sdscat(s, &quot;XY&quot;);&lt;/font&gt;" style="text;html=1;strokeColor=none;fillColor=none;align=center;verticalAlign=middle;whiteSpace=wrap;rounded=0;sketch=1;" vertex="1" parent="1">
          <mxGeometry x="39" y="220" width="150" height="20" as="geometry" />
        </mxCell>
        <mxCell id="bQQyXxLcEVgci-WKwtOE-41" value="" style="endArrow=classic;html=1;sketch=1;fillColor=#dae8fc;strokeColor=#6c8ebf;" edge="1" parent="1">
          <mxGeometry width="50" height="50" relative="1" as="geometry">
            <mxPoint x="113.5" y="250" as="sourcePoint" />
            <mxPoint x="113.5" y="280" as="targetPoint" />
          </mxGeometry>
        </mxCell>
        <mxCell id="bQQyXxLcEVgci-WKwtOE-42" value="&lt;font style=&quot;font-size: 14px&quot; face=&quot;Comic Sans MS&quot;&gt;移除 SDS 字符串中的所有 ‘X’ 和 ‘Y’&lt;/font&gt;" style="text;html=1;strokeColor=none;fillColor=none;align=center;verticalAlign=middle;whiteSpace=wrap;rounded=0;sketch=1;" vertex="1" parent="1">
          <mxGeometry x="49" y="290" width="130" height="30" as="geometry" />
        </mxCell>
        <mxCell id="bQQyXxLcEVgci-WKwtOE-43" value="&lt;font face=&quot;Comic Sans MS&quot;&gt;&lt;span style=&quot;font-size: 14px&quot;&gt;a&lt;/span&gt;&lt;/font&gt;" style="rounded=0;whiteSpace=wrap;html=1;sketch=1;" vertex="1" parent="1">
          <mxGeometry x="339" y="380" width="30" height="30" as="geometry" />
        </mxCell>
        <mxCell id="bQQyXxLcEVgci-WKwtOE-44" value="&lt;font face=&quot;Comic Sans MS&quot;&gt;&lt;span style=&quot;font-size: 14px&quot;&gt;b&lt;/span&gt;&lt;/font&gt;" style="rounded=0;whiteSpace=wrap;html=1;sketch=1;" vertex="1" parent="1">
          <mxGeometry x="369" y="380" width="30" height="30" as="geometry" />
        </mxCell>
        <mxCell id="bQQyXxLcEVgci-WKwtOE-45" value="&lt;font face=&quot;Comic Sans MS&quot; style=&quot;font-size: 14px&quot;&gt;c&lt;/font&gt;" style="rounded=0;whiteSpace=wrap;html=1;sketch=1;" vertex="1" parent="1">
          <mxGeometry x="399" y="380" width="30" height="30" as="geometry" />
        </mxCell>
        <mxCell id="bQQyXxLcEVgci-WKwtOE-46" value="&lt;font face=&quot;Comic Sans MS&quot;&gt;&lt;span style=&quot;font-size: 14px&quot;&gt;\0&lt;/span&gt;&lt;/font&gt;" style="rounded=0;whiteSpace=wrap;html=1;sketch=1;" vertex="1" parent="1">
          <mxGeometry x="429" y="380" width="30" height="30" as="geometry" />
        </mxCell>
        <mxCell id="bQQyXxLcEVgci-WKwtOE-47" value="" style="rounded=0;whiteSpace=wrap;html=1;sketch=1;" vertex="1" parent="1">
          <mxGeometry x="459" y="380" width="31" height="30" as="geometry" />
        </mxCell>
        <mxCell id="bQQyXxLcEVgci-WKwtOE-48" value="" style="rounded=0;whiteSpace=wrap;html=1;sketch=1;" vertex="1" parent="1">
          <mxGeometry x="489" y="380" width="30" height="30" as="geometry" />
        </mxCell>
        <mxCell id="bQQyXxLcEVgci-WKwtOE-49" value="" style="rounded=0;whiteSpace=wrap;html=1;sketch=1;" vertex="1" parent="1">
          <mxGeometry x="519" y="380" width="30" height="30" as="geometry" />
        </mxCell>
        <mxCell id="bQQyXxLcEVgci-WKwtOE-50" value="" style="rounded=0;whiteSpace=wrap;html=1;sketch=1;" vertex="1" parent="1">
          <mxGeometry x="549" y="380" width="30" height="30" as="geometry" />
        </mxCell>
        <mxCell id="bQQyXxLcEVgci-WKwtOE-51" value="&lt;font face=&quot;Comic Sans MS&quot; style=&quot;font-size: 13px&quot;&gt;redisObject&lt;/font&gt;" style="rounded=0;whiteSpace=wrap;html=1;sketch=1;" vertex="1" parent="1">
          <mxGeometry x="80" y="490" width="180" height="30" as="geometry" />
        </mxCell>
        <mxCell id="bQQyXxLcEVgci-WKwtOE-52" value="&lt;font face=&quot;Comic Sans MS&quot; style=&quot;font-size: 13px&quot;&gt;encoding&lt;br&gt;REDIS_ENCODING_RAW&lt;br&gt;&lt;/font&gt;" style="rounded=0;whiteSpace=wrap;html=1;sketch=1;" vertex="1" parent="1">
          <mxGeometry x="80" y="560" width="180" height="40" as="geometry" />
        </mxCell>
        <mxCell id="bQQyXxLcEVgci-WKwtOE-53" value="&lt;font style=&quot;font-size: 13px&quot; face=&quot;Comic Sans MS&quot;&gt;type&lt;br&gt;REDIS_STRING&lt;br&gt;&lt;/font&gt;" style="rounded=0;whiteSpace=wrap;html=1;sketch=1;" vertex="1" parent="1">
          <mxGeometry x="80" y="520" width="180" height="40" as="geometry" />
        </mxCell>
        <mxCell id="bQQyXxLcEVgci-WKwtOE-54" value="&lt;font face=&quot;Comic Sans MS&quot; style=&quot;font-size: 14px&quot;&gt;&lt;b&gt;...&lt;/b&gt;&lt;/font&gt;" style="rounded=0;whiteSpace=wrap;html=1;sketch=1;" vertex="1" parent="1">
          <mxGeometry x="80" y="630" width="180" height="30" as="geometry" />
        </mxCell>
        <mxCell id="bQQyXxLcEVgci-WKwtOE-55" value="" style="endArrow=classic;html=1;sketch=1;fillColor=#dae8fc;strokeColor=#6c8ebf;exitX=1;exitY=0.5;exitDx=0;exitDy=0;" edge="1" parent="1" source="bQQyXxLcEVgci-WKwtOE-64">
          <mxGeometry width="50" height="50" relative="1" as="geometry">
            <mxPoint x="270" y="615" as="sourcePoint" />
            <mxPoint x="320" y="540" as="targetPoint" />
            <Array as="points">
              <mxPoint x="280" y="610" />
            </Array>
          </mxGeometry>
        </mxCell>
        <mxCell id="bQQyXxLcEVgci-WKwtOE-64" value="&lt;font style=&quot;font-size: 14px&quot; face=&quot;Comic Sans MS&quot;&gt;ptr&lt;br&gt;&lt;/font&gt;" style="rounded=0;whiteSpace=wrap;html=1;sketch=1;" vertex="1" parent="1">
          <mxGeometry x="80" y="600" width="180" height="30" as="geometry" />
        </mxCell>
        <mxCell id="bQQyXxLcEVgci-WKwtOE-66" value="&lt;font face=&quot;Comic Sans MS&quot; style=&quot;font-size: 14px&quot;&gt;sdshdr&lt;/font&gt;" style="rounded=0;whiteSpace=wrap;html=1;sketch=1;" vertex="1" parent="1">
          <mxGeometry x="324" y="520" width="80" height="30" as="geometry" />
        </mxCell>
        <mxCell id="bQQyXxLcEVgci-WKwtOE-67" value="&lt;font face=&quot;Comic Sans MS&quot; style=&quot;font-size: 14px&quot;&gt;free&lt;br&gt;0&lt;br&gt;&lt;/font&gt;" style="rounded=0;whiteSpace=wrap;html=1;sketch=1;" vertex="1" parent="1">
          <mxGeometry x="324" y="550" width="80" height="40" as="geometry" />
        </mxCell>
        <mxCell id="bQQyXxLcEVgci-WKwtOE-68" value="&lt;font style=&quot;font-size: 14px&quot; face=&quot;Comic Sans MS&quot;&gt;len&lt;br&gt;52&lt;br&gt;&lt;/font&gt;" style="rounded=0;whiteSpace=wrap;html=1;sketch=1;" vertex="1" parent="1">
          <mxGeometry x="324" y="590" width="80" height="40" as="geometry" />
        </mxCell>
        <mxCell id="bQQyXxLcEVgci-WKwtOE-69" value="&lt;font face=&quot;Comic Sans MS&quot; style=&quot;font-size: 14px&quot;&gt;buf&lt;/font&gt;" style="rounded=0;whiteSpace=wrap;html=1;sketch=1;" vertex="1" parent="1">
          <mxGeometry x="324" y="630" width="80" height="30" as="geometry" />
        </mxCell>
        <mxCell id="bQQyXxLcEVgci-WKwtOE-70" value="" style="endArrow=classic;html=1;sketch=1;fillColor=#dae8fc;strokeColor=#6c8ebf;" edge="1" parent="1">
          <mxGeometry width="50" height="50" relative="1" as="geometry">
            <mxPoint x="394" y="644.5" as="sourcePoint" />
            <mxPoint x="444" y="644.5" as="targetPoint" />
          </mxGeometry>
        </mxCell>
        <mxCell id="bQQyXxLcEVgci-WKwtOE-71" value="&lt;font style=&quot;font-size: 14px&quot; face=&quot;Comic Sans MS&quot;&gt;I&lt;/font&gt;" style="rounded=0;whiteSpace=wrap;html=1;sketch=1;" vertex="1" parent="1">
          <mxGeometry x="444" y="630" width="30" height="30" as="geometry" />
        </mxCell>
        <mxCell id="bQQyXxLcEVgci-WKwtOE-72" value="&lt;b&gt;&lt;font face=&quot;Comic Sans MS&quot; style=&quot;font-size: 14px&quot;&gt;...&lt;/font&gt;&lt;/b&gt;" style="rounded=0;whiteSpace=wrap;html=1;sketch=1;" vertex="1" parent="1">
          <mxGeometry x="474" y="630" width="30" height="30" as="geometry" />
        </mxCell>
        <mxCell id="bQQyXxLcEVgci-WKwtOE-73" value="&lt;font style=&quot;font-size: 14px&quot; face=&quot;Comic Sans MS&quot;&gt;9&lt;/font&gt;" style="rounded=0;whiteSpace=wrap;html=1;sketch=1;" vertex="1" parent="1">
          <mxGeometry x="504" y="630" width="30" height="30" as="geometry" />
        </mxCell>
        <mxCell id="bQQyXxLcEVgci-WKwtOE-74" value="&lt;font style=&quot;font-size: 14px&quot; face=&quot;Comic Sans MS&quot;&gt;9&lt;/font&gt;" style="rounded=0;whiteSpace=wrap;html=1;sketch=1;" vertex="1" parent="1">
          <mxGeometry x="534" y="630" width="30" height="30" as="geometry" />
        </mxCell>
        <mxCell id="bQQyXxLcEVgci-WKwtOE-75" value="&lt;font style=&quot;font-size: 14px&quot; face=&quot;Comic Sans MS&quot;&gt;6&lt;/font&gt;" style="rounded=0;whiteSpace=wrap;html=1;sketch=1;" vertex="1" parent="1">
          <mxGeometry x="564" y="630" width="31" height="30" as="geometry" />
        </mxCell>
        <mxCell id="bQQyXxLcEVgci-WKwtOE-76" value="&lt;font style=&quot;font-size: 14px&quot; face=&quot;Comic Sans MS&quot;&gt;&lt;b&gt;...&lt;/b&gt;&lt;/font&gt;" style="rounded=0;whiteSpace=wrap;html=1;sketch=1;" vertex="1" parent="1">
          <mxGeometry x="594" y="630" width="30" height="30" as="geometry" />
        </mxCell>
        <mxCell id="bQQyXxLcEVgci-WKwtOE-77" value="&lt;span style=&quot;font-size: 14px&quot;&gt;&lt;font face=&quot;Comic Sans MS&quot;&gt;\0&lt;/font&gt;&lt;/span&gt;" style="rounded=0;whiteSpace=wrap;html=1;sketch=1;" vertex="1" parent="1">
          <mxGeometry x="624" y="630" width="30" height="30" as="geometry" />
        </mxCell>
        <mxCell id="bQQyXxLcEVgci-WKwtOE-80" value="&lt;font face=&quot;Comic Sans MS&quot; style=&quot;font-size: 14px&quot;&gt;redisObject&lt;/font&gt;" style="rounded=0;whiteSpace=wrap;html=1;sketch=1;" vertex="1" parent="1">
          <mxGeometry x="56" y="713" width="440" height="30" as="geometry" />
        </mxCell>
        <mxCell id="bQQyXxLcEVgci-WKwtOE-82" value="&lt;font face=&quot;Comic Sans MS&quot; style=&quot;font-size: 14px&quot;&gt;type&lt;br&gt;REDIS_STRING&lt;br&gt;&lt;/font&gt;" style="rounded=0;whiteSpace=wrap;html=1;sketch=1;" vertex="1" parent="1">
          <mxGeometry x="56" y="743" width="120" height="40" as="geometry" />
        </mxCell>
        <mxCell id="bQQyXxLcEVgci-WKwtOE-83" value="&lt;font face=&quot;Comic Sans MS&quot; style=&quot;font-size: 14px&quot;&gt;encoding&lt;br&gt;REDIS_ENCODING_EMBSTR&lt;br&gt;&lt;/font&gt;" style="rounded=0;whiteSpace=wrap;html=1;sketch=1;" vertex="1" parent="1">
          <mxGeometry x="176" y="743" width="210" height="40" as="geometry" />
        </mxCell>
        <mxCell id="bQQyXxLcEVgci-WKwtOE-84" value="&lt;font face=&quot;Comic Sans MS&quot;&gt;&lt;span style=&quot;font-size: 13px&quot;&gt;ptr&lt;/span&gt;&lt;/font&gt;" style="rounded=0;whiteSpace=wrap;html=1;sketch=1;" vertex="1" parent="1">
          <mxGeometry x="385" y="743" width="70" height="40" as="geometry" />
        </mxCell>
        <mxCell id="bQQyXxLcEVgci-WKwtOE-85" value="&lt;font face=&quot;Comic Sans MS&quot; size=&quot;1&quot;&gt;&lt;b style=&quot;font-size: 14px&quot;&gt;...&lt;/b&gt;&lt;/font&gt;" style="rounded=0;whiteSpace=wrap;html=1;sketch=1;" vertex="1" parent="1">
          <mxGeometry x="456" y="743" width="40" height="40" as="geometry" />
        </mxCell>
        <mxCell id="bQQyXxLcEVgci-WKwtOE-86" value="&lt;font face=&quot;Comic Sans MS&quot; style=&quot;font-size: 14px&quot;&gt;sdshdr&lt;/font&gt;" style="rounded=0;whiteSpace=wrap;html=1;sketch=1;" vertex="1" parent="1">
          <mxGeometry x="496" y="713" width="244" height="20" as="geometry" />
        </mxCell>
        <mxCell id="bQQyXxLcEVgci-WKwtOE-87" value="&lt;font face=&quot;Comic Sans MS&quot; style=&quot;font-size: 14px&quot;&gt;free&lt;br&gt;0&lt;br&gt;&lt;/font&gt;" style="rounded=0;whiteSpace=wrap;html=1;sketch=1;" vertex="1" parent="1">
          <mxGeometry x="496" y="733" width="60" height="50" as="geometry" />
        </mxCell>
        <mxCell id="bQQyXxLcEVgci-WKwtOE-88" value="&lt;font face=&quot;Comic Sans MS&quot; style=&quot;font-size: 14px&quot;&gt;len&lt;br&gt;5&lt;br&gt;&lt;/font&gt;" style="rounded=0;whiteSpace=wrap;html=1;sketch=1;" vertex="1" parent="1">
          <mxGeometry x="556" y="733" width="60" height="50" as="geometry" />
        </mxCell>
        <mxCell id="bQQyXxLcEVgci-WKwtOE-89" value="&lt;font face=&quot;Comic Sans MS&quot; style=&quot;font-size: 14px&quot;&gt;buf&lt;/font&gt;" style="rounded=0;whiteSpace=wrap;html=1;sketch=1;" vertex="1" parent="1">
          <mxGeometry x="616" y="733" width="125" height="30" as="geometry" />
        </mxCell>
        <mxCell id="bQQyXxLcEVgci-WKwtOE-90" value="&lt;font face=&quot;Comic Sans MS&quot;&gt;h&lt;/font&gt;" style="rounded=0;whiteSpace=wrap;html=1;sketch=1;" vertex="1" parent="1">
          <mxGeometry x="616" y="763" width="21" height="20" as="geometry" />
        </mxCell>
        <mxCell id="bQQyXxLcEVgci-WKwtOE-91" value="&lt;font face=&quot;Comic Sans MS&quot;&gt;e&lt;/font&gt;" style="rounded=0;whiteSpace=wrap;html=1;sketch=1;" vertex="1" parent="1">
          <mxGeometry x="637" y="763" width="21" height="20" as="geometry" />
        </mxCell>
        <mxCell id="bQQyXxLcEVgci-WKwtOE-92" value="&lt;font face=&quot;Comic Sans MS&quot;&gt;l&lt;/font&gt;" style="rounded=0;whiteSpace=wrap;html=1;sketch=1;" vertex="1" parent="1">
          <mxGeometry x="658" y="763" width="21" height="20" as="geometry" />
        </mxCell>
        <mxCell id="bQQyXxLcEVgci-WKwtOE-93" value="&lt;font face=&quot;Comic Sans MS&quot;&gt;l&lt;/font&gt;" style="rounded=0;whiteSpace=wrap;html=1;sketch=1;" vertex="1" parent="1">
          <mxGeometry x="679" y="763" width="21" height="20" as="geometry" />
        </mxCell>
        <mxCell id="bQQyXxLcEVgci-WKwtOE-94" value="&lt;font face=&quot;Comic Sans MS&quot;&gt;o&lt;/font&gt;" style="rounded=0;whiteSpace=wrap;html=1;sketch=1;" vertex="1" parent="1">
          <mxGeometry x="700" y="763" width="21" height="20" as="geometry" />
        </mxCell>
        <mxCell id="bQQyXxLcEVgci-WKwtOE-95" value="&lt;font face=&quot;Comic Sans MS&quot;&gt;\0&lt;/font&gt;" style="rounded=0;whiteSpace=wrap;html=1;sketch=1;" vertex="1" parent="1">
          <mxGeometry x="721" y="763" width="21" height="20" as="geometry" />
        </mxCell>
        <mxCell id="bQQyXxLcEVgci-WKwtOE-96" value="" style="endArrow=classic;html=1;sketch=1;fillColor=#dae8fc;strokeColor=#6c8ebf;" edge="1" parent="1">
          <mxGeometry width="50" height="50" relative="1" as="geometry">
            <mxPoint x="420" y="790" as="sourcePoint" />
            <mxPoint x="620" y="790" as="targetPoint" />
            <Array as="points">
              <mxPoint x="520" y="810" />
            </Array>
          </mxGeometry>
        </mxCell>
        <mxCell id="bQQyXxLcEVgci-WKwtOE-99" value="&lt;font face=&quot;Comic Sans MS&quot; style=&quot;font-size: 14px&quot;&gt;flags&lt;br&gt;1&lt;br&gt;&lt;/font&gt;" style="rounded=0;whiteSpace=wrap;html=1;sketch=1;" vertex="1" parent="1">
          <mxGeometry x="288" y="155" width="80" height="40" as="geometry" />
        </mxCell>
      </root>
    </mxGraphModel>
  </diagram>
</mxfile>
